<svg xmlns="http://www.w3.org/2000/svg" id="prefix__Instagram" width="35" height="35" viewBox="0 0 35 35">
    <defs>
        <clipPath id="prefix__clip-path">
            <path id="prefix__path-1" d="M0 17.5A17.5 17.5 0 1 1 17.5 35 17.5 17.5 0 0 1 0 17.5z" class="prefix__cls-1"/>
        </clipPath>
        <style>
            .prefix__cls-1{fill:none}
        </style>
    </defs>
    <g id="prefix__Instagram-2" data-name="Instagram">
        <g id="prefix__back">
            <path id="prefix__path-1-2" d="M0 17.5A17.5 17.5 0 1 1 17.5 35 17.5 17.5 0 0 1 0 17.5z" data-name="path-1" style="fill:#cc38cc"/>
        </g>
        <g id="prefix__Shape_Clipped" data-name="Shape Clipped">
            <path id="prefix__path-1-3" d="M0 17.5A17.5 17.5 0 1 1 17.5 35 17.5 17.5 0 0 1 0 17.5z" class="prefix__cls-1" data-name="path-1"/>
            <g id="prefix__Shape_Clipped-2" data-name="Shape Clipped">
                <path id="prefix__Shape" d="M9.333 18.667c-2.533 0-2.862-.011-3.848-.056a6.917 6.917 0 0 1-2.265-.434A4.563 4.563 0 0 1 1.566 17.1 4.571 4.571 0 0 1 .49 15.446a6.917 6.917 0 0 1-.434-2.265C.011 12.195 0 11.865 0 9.333c0-2.516.011-2.847.056-3.848A6.872 6.872 0 0 1 .49 3.22a4.586 4.586 0 0 1 1.077-1.654A4.559 4.559 0 0 1 3.22.49 6.883 6.883 0 0 1 5.486.056C6.472.011 6.8 0 9.333 0s2.861.011 3.847.056a6.916 6.916 0 0 1 2.267.434A4.566 4.566 0 0 1 17.1 1.566a4.586 4.586 0 0 1 1.077 1.654 6.98 6.98 0 0 1 .434 2.265c.045 1 .056 1.328.056 3.848s-.011 2.851-.056 3.848a6.978 6.978 0 0 1-.434 2.265 4.782 4.782 0 0 1-2.729 2.731 6.928 6.928 0 0 1-2.267.434c-.986.045-1.316.056-3.848.056zM8.5 1.679c-1.754 0-2.079.013-2.934.053a5.131 5.131 0 0 0-1.733.322 2.892 2.892 0 0 0-1.074.7 2.892 2.892 0 0 0-.7 1.074 5.152 5.152 0 0 0-.322 1.733c-.044.966-.054 1.258-.054 3.771s.009 2.806.054 3.771a5.152 5.152 0 0 0 .322 1.733 2.9 2.9 0 0 0 .7 1.073 2.892 2.892 0 0 0 1.074.7 5.188 5.188 0 0 0 1.733.322c1.013.045 1.313.054 3.771.054s2.758-.01 3.771-.054a5.152 5.152 0 0 0 1.732-.322 3.094 3.094 0 0 0 1.771-1.771 5.178 5.178 0 0 0 .322-1.732c.045-1.013.054-1.313.054-3.77s-.01-2.757-.054-3.77a5.152 5.152 0 0 0-.322-1.733 2.9 2.9 0 0 0-.7-1.074 2.884 2.884 0 0 0-1.073-.7 5.152 5.152 0 0 0-1.732-.322c-.966-.044-1.258-.054-3.771-.054H8.5zm.837 12.446a4.793 4.793 0 1 1 4.792-4.793 4.8 4.8 0 0 1-4.794 4.794zm0-7.9a3.111 3.111 0 1 0 3.111 3.111 3.114 3.114 0 0 0-3.113-3.113zm4.982-.751a1.12 1.12 0 1 1 1.12-1.12 1.121 1.121 0 0 1-1.123 1.117z" transform="translate(8.167 8.167)" style="fill:#fff"/>
            </g>
        </g>
    </g>
</svg>
