<svg xmlns="http://www.w3.org/2000/svg" width="59" height="58" viewBox="0 0 59 58">
    <g id="prefix__Grupo_87" data-name="Grupo 87" transform="translate(-653.5 -1239)">
        <ellipse id="prefix__Elipse_26" cx="29.5" cy="29" data-name="Elipse 26" rx="29.5" ry="29" transform="translate(653.5 1239)" style="fill:#ebdd21"/>
        <path id="prefix__phone" d="M18.155 14.035v2.42a1.613 1.613 0 0 1-1.755 1.613 15.963 15.963 0 0 1-6.961-2.476 15.73 15.73 0 0 1-4.84-4.84 15.963 15.963 0 0 1-2.481-6.994A1.613 1.613 0 0 1 3.724 2h2.42a1.613 1.613 0 0 1 1.613 1.387 10.357 10.357 0 0 0 .565 2.267 1.613 1.613 0 0 1-.363 1.7L6.934 8.381a12.906 12.906 0 0 0 4.84 4.84L12.8 12.2a1.613 1.613 0 0 1 1.7-.363 10.357 10.357 0 0 0 2.267.565 1.613 1.613 0 0 1 1.387 1.637z" transform="translate(671.888 1257.5)" style="fill:none;stroke:#fff;stroke-linecap:round;stroke-linejoin:round;stroke-width:2px"/>
    </g>
</svg>
